:SAMPLES-PER-SECOND 30
:FULLY-SPECIFIED
:DEGREES
129
root  44.7972 39.4417 -2.84655 178.149 -87.9529 -179.288
RightUpLeg  11.1868 -9.67688 -4.90424
RightLeg  8.34447 2.55298 5.62835
RightFoot  -15.9725 0.041262 3.69527
RightToes  5.82063e-011 0 -3.6325e-017
Spine  6.16487 1.71331 12.3655
Spine1  8.44034 4.68217 -9.57054
HEad  -20.6052 1.8471 -6.13955
LeftShoulder1  9.59895 -13.5491 -49.1446
LeftArm  -4.09102 27.1881 -26.2507
LeftForeArm  23.4267 -13.5114 -5.68564
LeftHand  -0.244104 0.0205437 5.32207
RightShoulder  6.51398 10.3825 40.7287
RightArm  3.67734 15.1906 28.0595
RightForeArm  -4.71126 33.4294 7.69436
RightHand  -1.24198 2.62121 -18.0899
LeftUpLeg  -19.9819 2.56111 1.68546
LeftLeg  -0.161778 17.6515 -5.80625
LeftFoot  3.65928 0.382714 -3.07446
LeftToes  4.36525e-011 -9.98543e-011 1.0027e-011
130
root  43.3104 39.1836 -2.8212 176.761 -87.2723 -178.065
RightUpLeg  13.2276 -10.3815 -5.70889
RightLeg  9.5583 4.33406 5.48107
RightFoot  -17.0029 0.0803058 3.96602
RightToes  5.82063e-011 0 -3.6325e-017
Spine  5.60788 1.6869 11.5486
Spine1  9.05075 4.56084 -9.33575
HEad  -20.9091 2.68364 -5.79027
LeftShoulder1  9.61862 -13.5843 -49.1442
LeftArm  -5.57255 28.4209 -26.1447
LeftForeArm  25.4865 -9.99819 -6.1718
LeftHand  -0.244104 0.0205437 5.32207
RightShoulder  6.62848 10.5583 40.9434
RightArm  5.27473 14.4781 28.6951
RightForeArm  -4.22329 33.8481 7.78379
RightHand  -1.22919 2.56334 -18.0336
LeftUpLeg  -19.7723 2.7151 1.32589
LeftLeg  -2.90806 18.4033 -6.59599
LeftFoot  3.30557 0.38978 -3.17081
LeftToes  4.36525e-011 -9.98543e-011 1.0027e-011
131
root  41.7198 38.9354 -2.74331 177.223 -86.4892 -178.884
RightUpLeg  15.1829 -11.6888 -6.89612
RightLeg  11.6848 6.59007 4.96993
RightFoot  -17.5034 0.0952979 3.95028
RightToes  5.82063e-011 0 -3.6325e-017
Spine  4.94239 1.70103 10.753
Spine1  9.82159 4.55224 -9.16301
HEad  -20.8149 3.42109 -5.28327
LeftShoulder1  9.63983 -13.616 -49.1614
LeftArm  -5.89516 29.4427 -26.035
LeftForeArm  27.1792 -7.15933 -6.19173
LeftHand  -0.244104 0.0205437 5.32207
RightShoulder  6.75044 10.7083 41.282
RightArm  7.28274 12.9441 29.309
RightForeArm  -4.06208 33.393 7.64903
RightHand  -1.18206 2.35162 -17.8144
LeftUpLeg  -19.8694 2.71017 0.723601
LeftLeg  -0.21929 19.3274 -5.66252
LeftFoot  3.89435 0.11322 -1.08241
LeftToes  4.36525e-011 -9.98543e-011 1.0027e-011
132
root  40.0188 38.716 -2.65571 -175.971 -85.3231 173.748
RightUpLeg  16.9434 -12.7317 -8.79866
RightLeg  14.6132 9.50203 4.19491
RightFoot  -17.5963 0.197449 5.74382
RightToes  5.82063e-011 0 -3.6325e-017
Spine  4.22176 1.96921 8.92211
Spine1  10.4095 4.63037 -8.52138
HEad  -19.97 4.16769 -4.82357
LeftShoulder1  9.59176 -13.4817 -49.3029
LeftArm  -5.56814 30.3702 -25.8361
LeftForeArm  28.3831 -5.10481 -6.06753
LeftHand  -0.244104 0.0205437 5.32207
RightShoulder  6.90813 10.7698 42.1233
RightArm  10.2146 10.7382 29.5543
RightForeArm  -4.38435 31.6486 7.19944
RightHand  -1.12948 2.18789 -17.3969
LeftUpLeg  -19.9721 3.86867 -0.971484
LeftLeg  5.13027 18.5814 -3.3693
LeftFoot  6.25544 -0.587424 3.5124
LeftToes  4.36525e-011 -9.98543e-011 1.0027e-011
133
root  38.3048 38.6236 -2.59603 -164.357 -84.238 161.535
RightUpLeg  17.3498 -11.1949 -10.4932
RightLeg  19.1437 10.1157 3.65666
RightFoot  -15.911 0.274915 9.90638
RightToes  5.82063e-011 0 -3.6325e-017
Spine  3.58683 2.17381 5.56398
Spine1  10.5811 4.34869 -7.1189
HEad  -18.5502 4.87936 -4.51459
LeftShoulder1  9.4869 -13.1942 -49.6016
LeftArm  -5.30566 30.9228 -25.417
LeftForeArm  28.8488 -3.89184 -6.04239
LeftHand  -0.244104 0.0205437 5.32207
RightShoulder  7.12776 10.7936 43.4716
RightArm  14.1003 8.11879 29.7161
RightForeArm  -5.18147 27.9103 6.20785
RightHand  -1.12468 2.36849 -16.9396
LeftUpLeg  -19.8674 7.65534 -4.28749
LeftLeg  10.4446 14.4414 -0.767783
LeftFoot  7.53322 -1.3083 7.64019
LeftToes  4.36525e-011 -9.98543e-011 1.0027e-011
134
root  36.6897 38.732 -2.53553 -152.779 -83.6025 149.519
RightUpLeg  14.8747 -7.07782 -11.006
RightLeg  27.0182 6.57553 3.35482
RightFoot  -9.60687 -0.276259 13.5834
RightToes  5.82063e-011 0 -3.6325e-017
Spine  3.30788 1.99578 2.147
Spine1  10.2493 3.67453 -5.77834
HEad  -16.9347 5.25479 -4.42458
LeftShoulder1  9.42561 -13.0193 -49.8009
LeftArm  -5.07602 30.6315 -24.898
LeftForeArm  28.5701 -3.53681 -6.09824
LeftHand  -0.244104 0.0205437 5.32207
RightShoulder  7.31126 10.8065 44.6068
RightArm  15.67 5.12855 30.5616
RightForeArm  -4.32849 21.7968 5.64191
RightHand  -1.14196 2.72097 -16.4748
LeftUpLeg  -18.9967 11.4645 -7.369
LeftLeg  14.0071 10.3079 0.87012
LeftFoot  5.35719 -1.30769 8.62814
LeftToes  4.36525e-011 -9.98543e-011 1.0027e-011
135
root  35.2228 38.9267 -2.43779 -145.966 -83.0236 142.372
RightUpLeg  9.50595 -3.87464 -11.1435
RightLeg  37.9337 2.98234 2.21759
RightFoot  1.44266 -1.57476 14.2684
RightToes  5.82063e-011 0 -3.6325e-017
Spine  3.54562 1.70095 0.204217
Spine1  9.73417 3.16106 -5.51423
HEad  -15.3127 5.21638 -4.78866
LeftShoulder1  9.46141 -13.1027 -49.7399
LeftArm  -4.83591 29.2066 -24.4561
LeftForeArm  28.4346 -3.91092 -6.23198
LeftHand  -0.244104 0.0205437 5.32207
RightShoulder  7.35367 10.7919 44.9243
RightArm  7.15485 1.96968 31.9653
RightForeArm  4.45477 13.5525 7.71027
RightHand  -1.05707 2.47019 -15.7349
LeftUpLeg  -16.9476 13.4295 -8.72477
LeftLeg  15.642 8.55222 1.25804
LeftFoot  1.37071 -0.82653 7.32035
LeftToes  4.36525e-011 -9.98543e-011 1.0027e-011
136
root  33.8858 39.0734 -2.32641 -145.016 -82.0854 141.028
RightUpLeg  2.8675 -0.906021 -11.0337
RightLeg  48.6545 0.819659 0.693603
RightFoot  11.1236 -2.43539 12.6207
RightToes  5.82063e-011 0 -3.6325e-017
Spine  4.0161 1.61611 -0.79766
Spine1  9.65796 2.96293 -5.96066
HEad  -13.7802 5.24497 -5.70798
LeftShoulder1  9.51372 -13.2242 -49.6524
LeftArm  -4.49779 26.6159 -24.0879
LeftForeArm  28.9305 -4.89853 -6.48551
LeftHand  -0.244104 0.0205437 5.32207
RightShoulder  7.33063 10.795 44.7672
RightArm  -2.77272 -1.12362 33.2488
RightForeArm  12.4229 5.91009 8.15989
RightHand  -0.818695 1.16422 -14.5823
LeftUpLeg  -14.1912 12.9858 -8.5212
LeftLeg  16.1637 9.69052 0.667096
LeftFoot  -1.64817 -0.524576 6.33106
LeftToes  4.36525e-011 -9.98543e-011 1.0027e-011
137
root  32.5362 39.3041 -2.21556 -147.093 -81.5879 142.67
RightUpLeg  -3.18947 1.07925 -10.4159
RightLeg  56.4672 0.0443772 -0.337623
RightFoot  14.0645 -2.25402 10.3647
RightToes  5.82063e-011 0 -3.6325e-017
Spine  4.16921 1.3391 -1.34682
Spine1  10.0083 2.50238 -5.72004
HEad  -12.4008 5.77951 -6.76803
LeftShoulder1  9.48789 -13.1285 -49.8018
LeftArm  -4.10225 23.0538 -23.6476
LeftForeArm  29.6873 -6.4317 -6.83105
LeftHand  -0.244104 0.0205437 5.32207
RightShoulder  7.37881 10.8622 44.8541
RightArm  -5.26478 -4.04965 33.5772
RightForeArm  13.8603 1.61896 7.01969
RightHand  -0.580257 -0.374463 -13.4483
LeftUpLeg  -10.6967 10.2094 -7.39613
LeftLeg  15.2238 12.9962 -0.456774
LeftFoot  -3.10037 -0.434898 6.29526
LeftToes  4.36525e-011 -9.98543e-011 1.0027e-011
138
root  31.1717 39.642 -2.09684 -149.42 -82.2535 144.719
RightUpLeg  -8.35284 1.26494 -9.22367
RightLeg  60.489 -0.325157 -1.12457
RightFoot  11.887 -1.74428 8.87854
RightToes  5.82063e-011 0 -3.6325e-017
Spine  4.10589 0.582247 -1.39868
Spine1  10.2795 1.46668 -4.53051
HEad  -11.0424 6.60555 -7.39362
LeftShoulder1  9.39356 -12.8977 -49.9977
LeftArm  -3.72658 18.9146 -23.2513
LeftForeArm  29.8089 -8.38349 -7.05311
LeftHand  -0.244104 0.0205437 5.32207
RightShoulder  7.43512 10.8895 45.1222
RightArm  -5.81032 -7.25852 32.716
RightForeArm  15.6963 0.485536 6.59269
RightHand  -0.488204 -0.963132 -12.7668
LeftUpLeg  -6.80739 7.19528 -6.17443
LeftLeg  12.8673 15.6516 -1.70191
LeftFoot  -4.18648 -0.350596 5.9906
LeftToes  4.36525e-011 -9.98543e-011 1.0027e-011
139
root  29.8869 39.8694 -1.98187 -150.949 -83.4477 146.077
RightUpLeg  -12.9822 0.389435 -8.00246
RightLeg  61.2077 -0.88777 -2.26709
RightFoot  8.95602 -1.47447 8.57095
RightToes  5.82063e-011 0 -3.6325e-017
Spine  4.46533 -0.236992 -1.40927
Spine1  10.1572 0.272819 -3.28147
HEad  -9.53473 7.24901 -7.48987
LeftShoulder1  9.29069 -12.7608 -49.8665
LeftArm  -3.17531 14.6075 -23.2253
LeftForeArm  28.3992 -10.6082 -6.88971
LeftHand  -0.244104 0.0205437 5.32207
RightShoulder  7.31648 10.7351 44.8717
RightArm  -5.03026 -11.1564 31.6874
RightForeArm  16.6627 2.24206 6.71961
RightHand  -0.508637 -0.661611 -12.4724
LeftUpLeg  -3.4657 5.40963 -5.27822
LeftLeg  11.0037 16.4215 -2.69866
LeftFoot  -5.71827 -0.220455 5.18718
LeftToes  4.36525e-011 -9.98543e-011 1.0027e-011
140
root  28.6395 39.9645 -1.87328 -151.982 -84.5028 146.745
RightUpLeg  -16.8484 -0.615619 -6.8714
RightLeg  59.0598 -1.79984 -3.70215
RightFoot  7.37212 -1.21783 7.68169
RightToes  5.82063e-011 0 -3.6325e-017
Spine  5.38868 -0.857831 -1.58721
Spine1  9.75435 -0.733801 -2.18427
HEad  -8.05079 7.62094 -7.39055
LeftShoulder1  9.20198 -12.746 -49.4371
LeftArm  -2.51247 10.2924 -23.49
LeftForeArm  25.7641 -13.0163 -6.38236
LeftHand  -0.244104 0.0205437 5.32207
RightShoulder  7.0316 10.4554 43.9484
RightArm  -3.71756 -15.301 30.935
RightForeArm  15.3013 5.48918 7.21256
RightHand  -0.532591 -0.370463 -12.3271
LeftUpLeg  -0.416897 4.53883 -4.69444
LeftLeg  9.90844 16.2072 -3.38693
LeftFoot  -7.05431 -0.137901 4.83797
LeftToes  4.36525e-011 -9.98543e-011 1.0027e-011
